<?xml version="1.0" standalone="no"?>
<!DOCTYPE svg PUBLIC "-//W3C//DTD SVG 20010904//EN"
 "http://www.w3.org/TR/2001/REC-SVG-20010904/DTD/svg10.dtd">
<svg version="1.0" xmlns="http://www.w3.org/2000/svg"
 width="500.000000pt" height="500.000000pt" viewBox="0 0 500.000000 500.000000"
 preserveAspectRatio="xMidYMid meet">

<g transform="translate(0.000000,500.000000) scale(0.100000,-0.100000)"
fill="#000000" stroke="none">
<path d="M2230 4543 c-283 -34 -632 -162 -858 -314 -131 -88 -133 -89 -197
-145 -285 -245 -484 -511 -598 -799 -132 -334 -184 -647 -159 -948 44 -530
251 -980 613 -1333 106 -102 295 -251 404 -316 228 -137 550 -251 781 -278
113 -13 420 -13 544 0 241 26 576 141 805 278 111 66 280 199 381 298 310 307
507 676 598 1124 51 253 53 459 6 705 -85 446 -287 835 -589 1135 -212 210
-428 353 -712 469 -291 120 -671 166 -1019 124z m580 -648 c0 -11 -64 -172
-130 -330 -39 -93 -77 -183 -83 -200 -5 -16 -41 -97 -78 -180 -37 -82 -63
-151 -59 -153 4 -2 41 2 81 7 41 6 115 16 166 23 51 6 95 9 98 6 4 -4 -13 -66
-38 -140 -25 -73 -55 -169 -67 -213 -12 -44 -23 -81 -25 -83 -1 -2 -36 5 -76
15 -46 10 -116 17 -186 17 -69 1 -113 5 -113 11 1 6 7 39 15 75 8 36 14 76 15
89 0 26 20 26 -252 5 -72 -6 -78 -5 -78 13 0 29 20 43 60 43 26 0 43 7 59 24
22 23 22 25 6 56 -14 27 -15 34 -3 41 18 11 20 85 2 100 -16 13 -19 54 -3 43
6 -4 10 1 8 12 -4 29 12 105 21 99 4 -3 8 1 7 8 0 6 1 26 2 42 2 26 3 27 11
10 6 -15 9 -8 9 28 1 35 5 47 16 47 9 0 15 9 14 23 -1 34 8 78 26 127 21 59
66 199 72 227 3 12 12 25 22 29 15 6 427 80 464 83 9 0 17 -1 17 -4z m-325
-1806 c22 -6 102 -24 178 -40 148 -31 207 -51 207 -70 0 -12 -65 -149 -230
-484 -75 -152 -270 -508 -287 -525 -3 -3 -2 27 2 65 l7 70 -26 -38 c-14 -21
-38 -59 -51 -85 -14 -26 -23 -38 -21 -27 9 40 25 102 55 215 27 106 65 262 77
318 3 13 11 34 18 45 8 12 17 36 21 52 l8 30 8 -30 c5 -19 7 -1 5 52 -3 63 -1
83 10 87 8 3 14 16 14 29 0 13 5 28 10 33 11 11 30 124 37 222 l5 64 -59 -7
c-32 -4 -67 -9 -78 -11 -10 -2 -65 -7 -122 -10 -85 -6 -103 -4 -103 7 0 23 14
37 40 42 50 9 236 6 275 -4z m-1695 -633 c0 -3 -4 -8 -10 -11 -5 -3 -10 -1
-10 4 0 6 5 11 10 11 6 0 10 -2 10 -4z m22 -18 c-16 -16 -15 -33 1 -19 11 8
14 5 14 -19 0 -32 13 -53 20 -32 3 6 10 9 16 5 7 -4 8 0 4 13 -7 18 -6 18 8
-1 14 -18 13 -20 -7 -32 -20 -11 -18 -18 5 -14 5 1 7 -9 5 -21 -2 -17 1 -22
15 -20 9 2 18 -2 18 -8 1 -5 2 -16 3 -22 1 -7 7 -12 14 -11 7 2 12 -2 12 -7 0
-5 -6 -10 -12 -10 -9 0 -8 -3 2 -10 9 -6 17 -5 23 3 5 7 6 2 2 -11 -6 -21 -5
-23 13 -13 14 8 23 8 27 1 4 -6 3 -10 -2 -9 -20 3 -25 -2 -13 -16 25 -30 -7
-14 -36 18 -38 41 -94 114 -94 122 0 3 -16 27 -35 52 -27 36 -32 49 -24 59 6
8 16 14 22 14 7 0 7 -4 -1 -12z m193 -88 c3 -5 1 -10 -4 -10 -6 0 -11 5 -11
10 0 6 2 10 4 10 3 0 8 -4 11 -10z m-55 -44 c0 -3 -4 -8 -10 -11 -5 -3 -10 -1
-10 4 0 6 5 11 10 11 6 0 10 -2 10 -4z m3070 -106 c-6 -11 -13 -20 -16 -20 -2
0 0 9 6 20 6 11 13 20 16 20 2 0 0 -9 -6 -20z m-2990 -36 c0 -8 4 -12 10 -9 6
4 7 -1 3 -11 -6 -15 -7 -15 -18 -1 -8 11 -15 13 -22 6 -8 -8 -13 -7 -18 2 -6
8 -4 10 4 5 8 -5 14 0 18 13 6 23 23 19 23 -5z m2969 3 c-2 -1 -13 -9 -24 -17
-19 -14 -19 -14 -6 3 7 9 18 17 24 17 6 0 8 -1 6 -3z m-2936 -59 c12 2 17 -1
13 -7 -12 -18 -40 -12 -55 12 -13 21 -13 21 4 7 10 -8 27 -14 38 -12z m2887 7
c-7 -8 -17 -15 -22 -15 -11 0 14 29 26 30 5 0 3 -7 -4 -15z m-2861 -56 c13
-11 21 -22 19 -25 -3 -3 -18 6 -33 20 -33 30 -21 35 14 5z m26 11 c3 -5 1 -10
-4 -10 -6 0 -11 5 -11 10 0 6 2 10 4 10 3 0 8 -4 11 -10z m2770 -20 c-13 -14
-22 -17 -29 -10 -7 7 -6 14 3 23 10 10 11 8 6 -8 -6 -19 -5 -19 12 1 10 12 20
20 22 18 2 -2 -4 -13 -14 -24z m-2724 -67 c13 -16 12 -17 -3 -4 -10 7 -18 15
-18 17 0 8 8 3 21 -13z"/>
</g>
</svg>
